<?xml version="1.0" encoding="UTF-8" standalone="no"?>
<!-- Created with Inkscape (http://www.inkscape.org/) -->

<svg
   width="1050"
   height="1050"
   viewBox="0 0 277.81249 277.8125"
   version="1.1"
   id="svg1"
   xml:space="preserve"
   xmlns="http://www.w3.org/2000/svg"
   xmlns:svg="http://www.w3.org/2000/svg"><defs
     id="defs1" /><g
     id="layer1"><path
       style="fill:#526ec8;stroke-width:0.856615"
       d="m 92.301579,270.69351 c -10.5865,-0.75212 -20.66753,-3.04678 -30.92938,-7.0402 -6.50631,-2.53195 -15.994295,-7.92517 -21.319455,-12.11856 -3.42673,-2.69841 -10.181975,-9.35901 -12.80138,-12.62201 -4.22933,-5.26846 -10.07928,-14.79195 -12.48656,-20.32765 -3.329445,-7.65625 -6.7693001,-21.48729 -7.7111601,-31.00519 -0.40335,-4.0761 -0.2037,-18.1753 0.28595,-20.19037 0.1811,-0.74534 0.612585,-3.59121 0.958845,-6.32416 0.68911,-5.43896 1.303635,-9.20845 1.7674251,-10.8414 0.16465,-0.57972 0.60102,-2.34145 0.96971,-3.91496 0.937285,-4.00017 2.457715,-9.42357 3.88362,-13.85293 1.15899,-3.60022 1.442205,-4.37853 2.372605,-6.52024 0.22675,-0.52193 0.41225,-1.12022 0.41225,-1.32955 0,-0.83974 2.090175,-5.55461 4.86411,-10.9721 6.1454,-12.00196 8.020065,-15.140921 16.366705,-27.404665 3.81408,-5.60404 10.925475,-14.375795 17.078345,-21.06577 4.338495,-4.71722 4.50281,-4.875635 12.525005,-12.074845 3.146265,-2.823495 6.148155,-5.533844 6.670865,-6.023004 0.522715,-0.48915 1.74183,-1.43145 2.709145,-2.09398 0.96732,-0.66253 4.014915,-2.88764 6.772435,-4.944685 9.953285,-7.424925 21.565641,-14.257085 32.780041,-19.286225 3.55102,-1.592475 11.59955,-4.854255 13.79751,-5.59164 0.66713,-0.2238 2.23641,-0.76245 3.48728,-1.19697 4.31514,-1.498955 14.18604,-4.1062447 20.92372,-5.5267591 6.36784,-1.3425448 15.22091,-2.1618498 22.89477,-2.1187848 5.38662,0.03 8.80244,0.31955 13.19103,1.1173554 1.918,0.34865 4.37426,0.7896247 5.45835,0.9799097 1.08409,0.1902997 2.99452,0.6149744 4.24539,0.9437644 1.25087,0.3287997 3.02242,0.7945494 3.93677,1.0350244 2.38761,0.627945 10.12241,3.226165 12.43831,4.178185 10.74509,4.417105 19.05498,9.961095 27.29179,18.20788 7.02869,7.037225 11.71362,13.572585 15.97981,22.291484 4.92794,10.071375 7.36007,17.92143 9.19035,29.66331 1.02765,6.592773 1.44511,19.865115 0.82408,26.200065 -0.065,0.66253 -0.41842,2.83081 -0.78549,4.8184 -0.36706,1.9876 -0.94441,5.17226 -1.28297,7.07704 -0.92948,5.2293 -2.41912,11.5892 -3.35048,14.30464 -0.17043,0.4969 -0.76639,2.32639 -1.32436,4.06554 -2.1763,6.78337 -3.28955,9.92546 -4.74807,13.40118 -0.83404,1.9876 -1.80107,4.42692 -2.14896,5.42071 -0.34787,0.9938 -1.01826,2.34179 -1.48973,2.99554 -0.47148,0.65376 -0.85721,1.42498 -0.85721,1.71384 0,0.28886 -0.1237,0.60111 -0.27481,0.69388 -0.15116,0.0928 -0.67615,1.01551 -1.16663,2.05054 -1.9021,4.01378 -6.96542,12.67802 -10.60319,18.14398 -7.2885,10.95141 -11.90143,16.7177 -22.35581,27.94538 -2.78949,2.99581 -11.86642,11.54391 -15.85004,14.92656 -4.02623,3.41884 -12.10658,9.57495 -16.93499,12.90211 -9.03232,6.22399 -23.15036,13.8798 -33.49091,18.16116 -3.39313,1.40487 -11.32681,4.12557 -16.67831,5.71951 -4.22355,1.25798 -12.7855,3.17594 -17.43642,3.90595 -1.16749,0.18325 -2.87322,0.45995 -3.79053,0.61493 -5.58115,0.94285 -17.496801,1.38922 -24.259371,0.90878 z m 19.104261,-9.20018 c 14.79175,-1.6762 28.80809,-5.65321 43.93121,-12.46509 4.81274,-2.1678 13.24694,-6.47373 15.54144,-7.93441 0.89684,-0.57091 3.21995,-2.00719 5.16246,-3.19171 7.42049,-4.52489 17.63694,-12.07158 24.66967,-18.22303 2.88927,-2.5272 10.07932,-9.45823 13.66868,-13.17625 9.65353,-9.99957 20.71057,-24.7226 27.33875,-36.40296 10.04568,-17.70276 16.72853,-36.77743 19.46638,-55.56224 0.33796,-2.31885 0.75296,-7.13332 0.9222,-10.6988 0.85802,-18.07537 -1.97222,-33.25306 -8.78701,-47.12205 -7.05285,-14.353479 -17.83286,-25.565774 -32.21811,-33.510059 -4.37457,-2.41587 -13.38512,-5.92934 -18.41981,-7.18242 -5.00467,-1.245605 -11.41906,-2.387255 -16.05444,-2.85742 -4.39232,-0.4455 -18.57191,-0.1655 -23.21541,0.45845 -19.8467,2.666775 -38.00501,8.772295 -56.26625,18.918875 -20.520136,11.401695 -41.473846,29.162229 -56.421481,47.823304 -22.51258,28.10535 -35.40494,58.71901 -37.559215,89.18651 -1.42746,20.18828 2.73634,39.02532 12.099795,54.73949 3.519375,5.90636 6.904265,10.11602 12.64774,15.7295 4.07378,3.98157 7.08208,6.34359 11.752445,9.22763 12.02173,7.42368 24.56656,11.44547 39.604275,12.69689 4.413015,0.36725 17.203571,0.1048 22.136681,-0.4542 z m -20.013986,-2.55092 c -9.34021,-0.66705 -15.05326,-1.75993 -23.11353,-4.42154 -8.26629,-2.72963 -17.43222,-7.63002 -23.60368,-12.61925 -2.96758,-2.3991 -8.54397,-8.02504 -11.16938,-11.26864 -7.94638,-9.81747 -13.474645,-22.50704 -15.80496,-36.27865 -4.63967,-27.41937 2.16101,-58.42887 19.30301,-88.01715 6.18451,-10.674862 11.89938,-18.72312 20.693035,-29.14196 3.521995,-4.17291 17.94537,-18.380445 22.172305,-21.840505 11.950645,-9.782489 21.824756,-16.356194 34.266366,-22.812869 22.05864,-11.447525 48.41311,-17.69113 68.98756,-16.34377 17.2535,1.12988 32.48257,6.16846 44.28453,14.651655 18.6672,13.417895 29.35229,33.767309 31.36381,59.731387 1.27659,16.477762 -1.95211,36.360102 -8.73994,53.820592 -3.97543,10.2261 -6.96015,16.45134 -12.04452,25.12126 -9.06535,15.45836 -19.3204,28.52501 -31.97806,40.74544 -7.14916,6.90222 -9.88794,9.2842 -16.73052,14.55102 -19.51547,15.02131 -39.1516,24.72858 -61.73413,30.51875 -11.4239,2.9291 -25.69009,4.3514 -36.151896,3.60423 z m 13.191036,-6.63064 c 9.48359,-0.67213 21.65388,-3.10522 30.93069,-6.1837 11.81961,-3.92229 27.40898,-11.50569 37.58752,-18.28433 12.4607,-8.29849 22.46192,-16.68651 33.12197,-27.77939 18.51745,-19.2693 31.752,-40.52401 39.37827,-63.24158 6.398,-19.05873 8.55398,-38.132621 6.04174,-53.45098 -1.84263,-11.23521 -5.77022,-21.819745 -11.05871,-29.802185 -7.60721,-11.482294 -18.3433,-20.258879 -31.10865,-25.430814 -6.48001,-2.62541 -16.32456,-4.91711 -24.13287,-5.61787 -16.32474,-1.46507 -37.82405,2.442815 -56.34897,10.24243 C 113.4866,39.292441 98.395064,48.630055 83.967429,60.62266 79.516214,64.32262 68.058449,75.45394 64.274214,79.754795 42.417439,104.5954 28.915159,131.34843 24.069049,159.41613 c -1.55893,9.029 -1.9743,19.9701 -1.063,27.99991 1.762845,15.53305 6.89396,28.26492 16.083625,39.9084 6.370175,8.07114 16.51405,15.38639 27.404445,19.76275 10.504025,4.22107 24.72475,6.17171 38.088771,5.22458 z m -13.039416,-2.90551 c -11.420555,-0.9046 -21.37733,-3.42999 -29.41524,-7.46075 -7.337955,-3.67975 -14.647235,-9.20566 -19.207995,-14.52147 -7.560385,-8.81202 -11.646085,-16.71726 -14.76302,-28.5643 -2.9088,-11.05593 -3.35298,-25.6846 -1.17043,-38.54724 1.103375,-6.50265 3.48612,-15.80573 5.55316,-21.68152 8.293695,-23.5758 23.084315,-46.527102 42.31915,-65.668665 7.357725,-7.32205 11.70399,-11.07476 20.32328,-17.547805 21.304861,-15.999849 45.137881,-26.084109 69.594061,-29.446749 5.75728,-0.791605 19.91273,-0.710615 25.39129,0.14525 16.74482,2.615955 27.9865,7.894505 39.40592,18.50312 5.49401,5.103924 11.88809,15.082659 14.89357,23.243204 1.57144,4.2668 3.47818,11.66381 4.19192,16.26212 0.70008,4.510333 0.80639,19.785795 0.17291,24.844885 -2.57874,20.59404 -10.01092,40.58755 -22.48961,60.49984 -4.42124,7.055 -6.01012,9.26771 -12.0242,16.74523 -5.66322,7.04128 -7.24547,8.82536 -12.65315,14.26721 -13.95246,14.04058 -26.51426,23.48371 -43.40835,32.63154 -13.21798,7.15729 -29.5396,12.82129 -43.51524,15.10088 -6.7371,1.09891 -17.447256,1.65071 -23.198026,1.1952 z m -5.51644,-41.3957 c 6.576525,-1.01157 11.8475,-4.6949 16.193126,-11.31569 3.12596,-4.76257 7.42697,-14.4476 9.99169,-22.49934 0.62783,-1.97104 1.3546,-3.84502 1.61503,-4.16442 0.45105,-0.5532 0.96099,-0.58034 10.75083,-0.57224 8.29338,0.007 10.35757,0.0882 10.69311,0.42145 0.27865,0.2767 0.50673,1.7472 0.69138,4.45707 0.2977,4.3688 0.97036,11.14263 1.70248,17.14417 0.90049,7.38182 1.1057,10.54206 0.71493,11.00966 -0.22945,0.27458 -0.93401,0.43422 -1.91762,0.43447 -1.84933,4.9e-4 -6.29213,0.74033 -7.13459,1.1881 -1.0087,0.53611 -1.1035,1.49636 -0.2331,2.36078 l 0.77116,0.76584 22.33896,0.0198 22.33895,0.0199 0.55965,-0.68637 c 1.40477,-1.72285 -0.65675,-3.04182 -5.09407,-3.25921 -3.72656,-0.18257 -4.23676,-0.28923 -4.59899,-0.96139 -0.36425,-0.67594 -1.45425,-9.75326 -3.06168,-25.49741 -0.67643,-6.62522 -1.62485,-15.36611 -2.10759,-19.42411 -0.88694,-7.45568 -1.60922,-14.20674 -2.75471,-25.74836 -0.34519,-3.47828 -0.88609,-8.56019 -1.20193,-11.29313 -0.31585,-2.73294 -0.85767,-7.54382 -1.20406,-10.69084 -0.56911,-5.17066 -1.12662,-10.095817 -1.70089,-15.026132 l -0.2068,-1.77553 -3.52262,0.23425 c -1.93745,0.12885 -7.4756,0.318 -12.30701,0.42035 l -8.78436,0.1861 -0.3596,1.35518 c -0.4195,1.58089 -1.32201,5.522282 -2.24116,9.787372 -5.00988,23.24714 -11.15677,46.43029 -16.87006,63.62581 -3.39782,10.22656 -5.07519,14.44015 -8.59854,21.59974 -3.800156,7.72207 -6.487931,10.80902 -9.248731,10.6223 -1.638895,-0.11086 -1.67393,-0.67266 -0.2507,-4.02033 1.09706,-2.58046 1.142455,-2.82434 1.144805,-6.15025 0.0024,-3.42238 -0.011,-3.48939 -1.15045,-5.68308 -2.502145,-4.81776 -6.562555,-7.27262 -12.01286,-7.26281 -7.47277,0.0135 -13.6377,5.90968 -14.18132,13.56319 -0.25615,3.60609 1.34817,7.86008 4.108635,10.89451 2.523625,2.77409 6.80299,5.15033 10.462745,5.80975 2.791825,0.50302 3.987185,0.52291 6.665945,0.11086 z m 30.262996,-44.20862 c -0.23345,-0.14681 -0.3488,-0.51533 -0.25775,-0.82355 0.0906,-0.30681 0.5321,-1.7775 0.98103,-3.26819 1.41671,-4.70424 2.86392,-9.99615 4.90027,-17.91845 2.97384,-11.56948 5.79158,-22.8897 6.03428,-24.2426 0.3265,-1.82012 0.65088,-2.25863 1.67066,-2.25863 1.19518,0 1.36639,0.51544 1.60053,4.8184 0.10365,1.90478 0.32685,4.75065 0.496,6.32416 0.16915,1.57351 0.44155,4.48714 0.60535,6.47473 0.33385,4.05097 0.98762,11.15632 1.69028,18.37018 0.62858,6.45332 0.99226,11.9611 0.82026,12.42245 -0.108,0.2897 -2.21171,0.37538 -9.12936,0.37183 -4.94395,-0.003 -9.17915,-0.12418 -9.41155,-0.27033 z M 94.833364,95.638028 c 0.3766,-0.374 1.348225,-2.37291 2.159125,-4.44197 0.810895,-2.06906 1.6415,-3.945518 1.845785,-4.169903 0.3087,-0.3391 8.428766,-0.425 48.089476,-0.508775 29.59136,-0.0625 48.86996,-0.2179 50.75045,-0.409 12.85343,-1.30646 19.61192,-5.062455 24.43783,-13.581175 3.57163,-6.30467 5.14573,-10.6554 5.22988,-14.45522 l 0.05,-2.258625 -2.42593,-0.1666 c -1.33427,-0.09165 -2.66673,-0.0519 -2.96104,0.08825 -0.86765,0.4132 -1.87528,2.2734 -3.09663,5.716745 -0.86736,2.445325 -1.2998,3.277855 -1.7815,3.429685 -0.34984,0.11025 -21.5178,0.22845 -47.03989,0.26265 -47.08778,0.06305 -50.91809,0.14485 -57.124,1.2196 -4.53851,0.78599 -6.89187,1.61187 -10.38264,3.64364 -3.511946,2.044095 -5.919291,4.7127 -8.703261,9.647775 -2.97298,5.27013 -5.35162,12.015273 -5.15959,14.631133 0.1169,1.59277 0.860415,2.02123 3.51811,2.02741 1.58105,0.004 2.0267,-0.1124 2.593815,-0.6756 z"
       id="path1" /></g></svg>
